# xmcd
#
# Track frame offsets: 
#        150
#        16817
#        38678
#        57469
#        74590
#        94280
#        117594
#        145507
#        167397
#
# Disc length: 2544 seconds
#
# Revision: 0
# Processed by: cddbd v1.5.2PL0 Copyright (c) Steve Scherf et al.
# Submitted via: ExactAudioCopy v0.99pb3
#
DISCID=7609ee09
DTITLE=Mick Jagger - She's The Boss
DYEAR=1985
DGENRE=Rock
TTITLE0=Lonely At The Top
TTITLE1=Half A Loaf
TTITLE2=Running Out Of Luck
TTITLE3=Turn The Girl Loose
TTITLE4=Hard Woman
TTITLE5=Just Another Night
TTITLE6=Lucky In Love
TTITLE7=Secrets
TTITLE8=She's The Boss
EXTD=
EXTT0=
EXTT1=
EXTT2=
EXTT3=
EXTT4=
EXTT5=
EXTT6=
EXTT7=
EXTT8=
PLAYORDER=
